<?xml version="1.0"?>
<!DOCTYPE svg PUBLIC "-//W3C//DTD SVG 1.1//EN" "http://www.w3.org/Graphics/SVG/1.1/DTD/svg11.dtd">
<svg width="489.6mm" height="349.5999992168932mm" viewBox="0 0 489.6 349.5999992168932" xmlns="http://www.w3.org/2000/svg" version="1.1">
<g id="Sketch" transform="translate(244.800000,174.800000) scale(1,-1)">
<path id="Sketch_w0000"  d="M 210.0 -169.99999921689317 A 30 30 0 0 1 240 -140L 240.0 140.0 A 30 30 0 0 1 210 170L 60.0 170.0 L 60.0 130.0 L -60.0 130.0 L -60.0 170.0 L -210.0 170.0 A 30 30 0 0 1 -240 140L -240.0 -140.0 A 30 30 0 0 1 -210 -170L -120.0 -169.99999921689317 L -120.0 -69.99999921689317 L 120.0 -69.99999921689317 L 120.0 -169.99999921689317 L 210.0 -169.99999921689317 " stroke="#000000" stroke-width="0.35 px" style="stroke-width:0.35;stroke-miterlimit:4;stroke-dasharray:none;fill:none;fill-rule: evenodd "/>
<path id="Sketch_w0001"  d="M -210.0 110.0 L -210.0 -110.0 L -190.0 -110.0 A 10 10 0 0 1 -180 -100L -180.0 100.0 A 10 10 0 0 1 -190 110L -210.0 110.0 " stroke="#000000" stroke-width="0.35 px" style="stroke-width:0.35;stroke-miterlimit:4;stroke-dasharray:none;fill:none;fill-rule: evenodd "/>
<path id="Sketch_w0002"  d="M 190.0 110.0 A 10 10 0 0 1 180 100L 180.0 -100.0 A 10 10 0 0 1 190 -110L 210.0 -110.0 L 210.0 110.0 L 190.0 110.0 " stroke="#000000" stroke-width="0.35 px" style="stroke-width:0.35;stroke-miterlimit:4;stroke-dasharray:none;fill:none;fill-rule: evenodd "/>
<path id="Sketch_w0003"  d="M -163.15000000000003 -104.99999921689283 L -156.85000000000002 -104.99999921689283 L -156.85000000000002 -134.99999921689283 L -163.15000000000003 -134.99999921689283 L -163.15000000000003 -104.99999921689283 " stroke="#000000" stroke-width="0.35 px" style="stroke-width:0.35;stroke-miterlimit:4;stroke-dasharray:none;fill:none;fill-rule: evenodd "/>
<path id="Sketch_w0004"  d="M -143.15000000000003 -104.99999921689283 L -136.85000000000002 -104.99999921689283 L -136.85000000000002 -134.99999921689283 L -143.15000000000003 -134.99999921689283 L -143.15000000000003 -104.99999921689283 " stroke="#000000" stroke-width="0.35 px" style="stroke-width:0.35;stroke-miterlimit:4;stroke-dasharray:none;fill:none;fill-rule: evenodd "/>
<path id="Sketch_w0005"  d="M 136.85000000000002 -104.99999921689283 L 143.15000000000003 -104.99999921689283 L 143.15000000000003 -134.99999921689283 L 136.85000000000002 -134.99999921689283 L 136.85000000000002 -104.99999921689283 " stroke="#000000" stroke-width="0.35 px" style="stroke-width:0.35;stroke-miterlimit:4;stroke-dasharray:none;fill:none;fill-rule: evenodd "/>
<path id="Sketch_w0006"  d="M 156.85000000000002 -104.99999921689283 L 163.15000000000003 -104.99999921689283 L 163.15000000000003 -134.99999921689283 L 156.85000000000002 -134.99999921689283 L 156.85000000000002 -104.99999921689283 " stroke="#000000" stroke-width="0.35 px" style="stroke-width:0.35;stroke-miterlimit:4;stroke-dasharray:none;fill:none;fill-rule: evenodd "/>
<title>b'Sketch'</title>
</g>
</svg>