<?xml version="1.0"?>
<!DOCTYPE svg PUBLIC "-//W3C//DTD SVG 1.1//EN" "http://www.w3.org/Graphics/SVG/1.1/DTD/svg11.dtd">
<svg width="367.2mm" height="217.2mm" viewBox="0 0 367.2 217.2" xmlns="http://www.w3.org/2000/svg" version="1.1">
<g id="Sketch002" transform="translate(183.600000,108.600000) scale(1,-1)">
<path id="Sketch002_w0000"  d="M -180.0 -94.99999999999999 L -180.0 95.00000000000001 A 10 10 0 0 0 -170 105L 170.0 105.0 A 10 10 0 0 0 180 95L 180.0 -94.99999999999999 A 10 10 0 0 0 170 -105L -170.0 -105.0 A 10 10 0 0 0 -180 -95" stroke="#000000" stroke-width="0.35 px" style="stroke-width:0.35;stroke-miterlimit:4;stroke-dasharray:none;fill:none;fill-rule: evenodd "/>
<path id="Sketch002_w0001"  d="M -163.15 -38.14999999999993 L -156.85 -38.14999999999993 L -156.85 -68.14999999999993 L -163.15 -68.14999999999993 L -163.15 -38.14999999999993 " stroke="#000000" stroke-width="0.35 px" style="stroke-width:0.35;stroke-miterlimit:4;stroke-dasharray:none;fill:none;fill-rule: evenodd "/>
<path id="Sketch002_w0002"  d="M 163.14999999999998 -38.14999999999993 L 156.85 -38.14999999999993 L 156.85 -68.14999999999993 L 163.14999999999998 -68.14999999999993 L 163.14999999999998 -38.14999999999993 " stroke="#000000" stroke-width="0.35 px" style="stroke-width:0.35;stroke-miterlimit:4;stroke-dasharray:none;fill:none;fill-rule: evenodd "/>
<path id="Sketch002_w0003"  d="M 143.14999999999998 68.15000000000003 L 136.84999999999997 68.15000000000003 L 136.84999999999997 38.150000000000034 L 143.14999999999998 38.150000000000034 L 143.14999999999998 68.15000000000003 " stroke="#000000" stroke-width="0.35 px" style="stroke-width:0.35;stroke-miterlimit:4;stroke-dasharray:none;fill:none;fill-rule: evenodd "/>
<path id="Sketch002_w0004"  d="M -136.85 68.15000000000003 L -143.15 68.15000000000003 L -143.15 38.150000000000034 L -136.85 38.150000000000034 L -136.85 68.15000000000003 " stroke="#000000" stroke-width="0.35 px" style="stroke-width:0.35;stroke-miterlimit:4;stroke-dasharray:none;fill:none;fill-rule: evenodd "/>
<title>b'SupportPlate'</title>
</g>
</svg>